<svg width="187" height="41" viewBox="0 0 187 41" fill="none" xmlns="http://www.w3.org/2000/svg">
<g clip-path="url(#clip0_669_48071)">
<path d="M17 40.7715C26.3891 40.7715 34 31.8175 34 20.7715V6.77148C34 5.18019 33.4627 3.65406 32.5062 2.52884C31.5498 1.40363 30.2526 0.771484 28.9 0.771484L17.85 0.771484V9.54548C17.85 11.5475 17.9537 13.6215 18.8462 15.3255C19.4851 16.5467 20.3399 17.5919 21.3524 18.3903C22.3649 19.1886 23.5116 19.7214 24.7146 19.9525L25.0401 20.0145C25.1743 20.0685 25.2909 20.1704 25.3734 20.3062C25.4558 20.4419 25.5002 20.6046 25.5002 20.7715C25.5002 20.9384 25.4558 21.101 25.3734 21.2368C25.2909 21.3725 25.1743 21.4745 25.0401 21.5285L24.7146 21.5905C22.9569 21.9283 21.3339 22.907 20.0745 24.3886C18.8152 25.8702 17.9833 27.7797 17.6961 29.8475L17.6434 30.2305C17.5976 30.3884 17.5109 30.5254 17.3955 30.6225C17.2801 30.7196 17.1418 30.7717 17 30.7717C16.8581 30.7717 16.7199 30.7196 16.6045 30.6225C16.4891 30.5254 16.4024 30.3884 16.3565 30.2305L16.3038 29.8475C16.1074 28.4322 15.6545 27.0832 14.9759 25.892C14.2973 24.7008 13.4089 23.6952 12.3709 22.9435C10.9225 21.8935 9.15959 21.7715 7.45789 21.7715H0.0203857C0.464936 32.3525 7.89649 40.7715 17 40.7715Z" fill="#0E1534"/>
<path d="M0 19.7715H7.4579C9.1596 19.7715 10.9225 19.6495 12.3709 18.5995C13.5031 17.7788 14.4562 16.6575 15.1538 15.3255C16.0463 13.6215 16.15 11.5475 16.15 9.54548V0.771484H5.1C3.7474 0.771484 2.45019 1.40363 1.49376 2.52884C0.53732 3.65406 0 5.18019 0 6.77148L0 19.7715ZM39.4868 2.77148C39.4868 3.30192 39.3076 3.81063 38.9888 4.1857C38.67 4.56077 38.2376 4.77148 37.7868 4.77148C37.3359 4.77148 36.9035 4.56077 36.5847 4.1857C36.2659 3.81063 36.0868 3.30192 36.0868 2.77148C36.0868 2.24105 36.2659 1.73234 36.5847 1.35727C36.9035 0.982198 37.3359 0.771484 37.7868 0.771484C38.2376 0.771484 38.67 0.982198 38.9888 1.35727C39.3076 1.73234 39.4868 2.24105 39.4868 2.77148ZM179.954 12.8755C184.707 12.8755 187 16.7805 187 21.3035V29.7985H182.027V22.3115C182.027 20.2615 181.391 18.5695 179.568 18.5695C177.744 18.5695 177.137 20.2615 177.137 22.3115V29.7975H172.163V22.3115C172.163 20.2615 171.556 18.5695 169.731 18.5695C167.908 18.5695 167.272 20.2615 167.272 22.3115V29.7975H162.3V21.3025C162.3 16.7795 164.592 12.8745 169.345 12.8745C171.942 12.8745 173.821 14.0785 174.678 16.0635C175.589 14.0785 177.579 12.8735 179.954 12.8735V12.8755ZM153.363 24.5915C154.965 24.5915 155.656 22.8665 155.656 20.8155V13.5255H160.629V21.5315C160.629 26.3155 158.253 30.2865 153.363 30.2865C148.472 30.2865 146.096 26.3165 146.096 21.5315V13.5255H151.07V20.8155C151.07 22.8655 151.76 24.5915 153.363 24.5915ZM138.784 30.3185C135.662 30.3185 133.645 29.0495 132.456 26.5765L136.048 24.2005C136.546 25.2415 137.291 25.7625 138.535 25.7625C139.557 25.7625 140.026 25.3395 140.026 24.8185C140.026 22.8335 132.733 24.8515 132.733 18.5385C132.733 15.4785 134.943 13.0055 138.7 13.0055C141.988 13.0055 143.784 14.8925 144.586 16.7155L140.994 19.1235C140.69 18.1475 139.75 17.5615 138.811 17.5615C138.093 17.5615 137.706 17.9195 137.706 18.4075C137.706 20.4255 145 18.5705 145 24.6885C145 28.1055 142.154 30.3185 138.784 30.3185ZM121.408 37.2835H116.435V21.6295C116.435 16.6495 119.612 13.0375 124.033 13.0375C128.343 13.0375 131.631 16.9105 131.631 21.6295C131.631 26.8365 128.702 30.2865 124.309 30.2865C123.287 30.2865 122.265 29.9285 121.408 29.3745V37.2835ZM124.033 24.7865C125.608 24.7865 126.658 23.3545 126.658 21.6615C126.658 19.9375 125.608 18.5375 124.033 18.5375C122.458 18.5375 121.408 19.9375 121.408 21.6625C121.408 23.3545 122.458 24.7865 124.033 24.7865ZM111.453 11.8015C109.823 11.8015 108.469 10.2065 108.469 8.28648C108.469 6.36648 109.823 4.77148 111.453 4.77148C113.083 4.77148 114.437 6.36648 114.437 8.28648C114.437 10.2065 113.083 11.8015 111.453 11.8015ZM108.967 13.5255H113.94V29.7985H108.967V13.5255ZM99.4245 30.2865C95.1142 30.2865 91.8263 26.3815 91.8263 21.6295C91.8263 16.9105 95.1142 13.0055 99.4245 13.0055C103.735 13.0055 107.023 16.9105 107.023 21.6295C107.023 26.3815 103.735 30.2865 99.4245 30.2865ZM99.4245 24.7865C101 24.7865 102.049 23.3545 102.049 21.6615C102.049 19.9375 101 18.5055 99.4245 18.5055C97.8495 18.5055 96.7997 19.9375 96.7997 21.6615C96.7997 23.3545 97.8495 24.7865 99.4245 24.7865ZM82.4356 37.7715C79.0101 37.7715 76.5229 35.9815 75.2522 32.7915L79.3688 30.1885C79.8108 31.2955 80.6395 32.4345 82.3523 32.4345C84.1492 32.4345 85.3366 31.0995 85.4752 28.7565C84.8121 29.4405 83.7616 29.9605 82.1874 29.9605C78.3462 29.9605 75.2514 26.4785 75.2514 21.5965C75.2514 16.8785 78.54 13.0375 82.8503 13.0375C87.2712 13.0375 90.4485 16.6505 90.4485 21.6295V28.0735C90.4485 33.9315 86.9941 37.7715 82.4356 37.7715ZM82.7671 24.4615C84.2588 24.4615 85.3919 23.2565 85.3919 21.4665C85.3919 19.7095 84.2597 18.5375 82.7671 18.5375C81.3025 18.5375 80.1423 19.7095 80.1423 21.4675C80.1423 23.2575 81.3025 24.4605 82.7671 24.4605V24.4615ZM66.816 30.2865C62.5056 30.2865 59.217 26.3815 59.217 21.6295C59.217 16.9105 62.5056 13.0055 66.816 13.0055C71.1255 13.0055 74.4141 16.9105 74.4141 21.6295C74.4141 26.3815 71.1263 30.2865 66.816 30.2865ZM66.816 24.7865C68.391 24.7865 69.4408 23.3545 69.4408 21.6615C69.4408 19.9375 68.391 18.5055 66.816 18.5055C65.2409 18.5055 64.1911 19.9375 64.1911 21.6615C64.1911 23.3545 65.2409 24.7865 66.816 24.7865ZM50.1611 7.83148V24.2655H58.395V29.7985H49.47C46.3208 29.7985 45.05 27.8455 45.05 24.7535V7.83148H50.1611Z" fill="#0E1534"/>
</g>
<defs>
<clipPath id="clip0_669_48071">
<rect width="187" height="40" fill="white" transform="translate(0 0.771484)"/>
</clipPath>
</defs>
</svg>
