<svg width="187" height="42" viewBox="0 0 187 42" fill="none" xmlns="http://www.w3.org/2000/svg">
<g clip-path="url(#clip0_669_48141)">
<path fill-rule="evenodd" clip-rule="evenodd" d="M59.3545 2.90461C59.3545 1.50775 60.4992 0.375366 61.9115 0.375366H66.3659C67.371 0.375366 68.3451 0.719908 69.1222 1.35034L70.4773 2.4495L70.5112 2.48007C70.5424 2.46964 70.5737 2.45944 70.6051 2.4495C73.0497 1.67497 76.0158 1.52767 79.0431 1.52767C82.0704 1.52767 85.0364 1.67497 87.4811 2.4495C87.5125 2.45944 87.5437 2.46964 87.575 2.48007L87.6089 2.4495L88.9639 1.35034C89.7411 0.719908 90.7152 0.375366 91.7203 0.375366H96.1747C97.5869 0.375366 98.7317 1.50775 98.7317 2.90461V4.46815C98.7317 5.67787 98.2165 6.83163 97.3125 7.64639L96.2193 8.63165C95.6857 9.11264 95.0452 9.46269 94.3494 9.65353L94.0908 9.72447C95.1038 12.1152 95.6634 14.6707 95.6634 16.7379C95.6634 25.0538 90.4616 28.6453 85.8783 31.8098C82.2689 34.3019 79.0431 36.5291 79.0431 40.5905C79.0431 36.5291 75.8172 34.3019 72.2078 31.8098C67.6245 28.6453 62.4228 25.0538 62.4228 16.7379C62.4228 14.6707 62.9824 12.1152 63.9953 9.72447L63.7367 9.65353C63.041 9.46269 62.4005 9.11264 61.8668 8.63165L60.7737 7.64639C59.8696 6.83163 59.3545 5.67787 59.3545 4.46815V2.90461ZM82.3672 23.5365C82.3672 23.9338 82.192 24.3147 81.8803 24.5957C81.5687 24.8766 81.1459 25.0345 80.7051 25.0345C80.3245 25.0345 79.9574 24.9167 79.6636 24.7038C80.1637 26.0279 81.4434 27.2825 83.3899 25.2649C85.1083 23.3902 83.3135 19.4361 81.565 17.0898C80.9821 16.3077 80.0253 15.9313 79.0431 15.9313C78.0608 15.9313 77.104 16.3077 76.5212 17.0898C74.7726 19.4361 72.9778 23.3902 74.6962 25.2649C76.6427 27.2825 77.9225 26.0279 78.4226 24.7038C78.1288 24.9167 77.7616 25.0345 77.3811 25.0345C76.9402 25.0345 76.5175 24.8766 76.2058 24.5957C75.8941 24.3147 75.719 23.9338 75.719 23.5365H82.3672ZM72.6783 11.8318H68.0482L71.6972 14.7219C72.5002 15.3578 73.6739 15.1545 74.1707 14.2934C74.7981 13.2062 73.9648 11.8318 72.6783 11.8318ZM85.4078 11.8318H90.038L86.389 14.7219C85.586 15.3578 84.4123 15.1545 83.9154 14.2934C83.2881 13.2062 84.1213 11.8318 85.4078 11.8318Z" fill="#72B800"/>
<path d="M104.248 28.861H108.349V13.3882H104.248V28.861ZM104.248 10.9753H108.349V7.29565H104.248V10.9753Z" fill="#355030"/>
<path d="M110.992 33.9282H115.094V27.1117H115.155C116.029 28.4388 117.447 29.3135 119.619 29.3135C123.6 29.3135 126.314 26.1465 126.314 21.1398C126.314 16.314 123.69 12.9661 119.588 12.9661C117.477 12.9661 116.029 13.9614 115.034 15.3186H114.944V13.3883H110.992V33.9282ZM118.744 25.9053C116.301 25.9053 115.004 24.0654 115.004 21.2604C115.004 18.4856 116.029 16.2838 118.593 16.2838C121.127 16.2838 122.152 18.3348 122.152 21.2604C122.152 24.1861 120.825 25.9053 118.744 25.9053Z" fill="#355030"/>
<path d="M134.497 29.3135C138.358 29.3135 141.012 27.4435 141.012 24.3369C141.012 20.7175 138.147 19.9936 135.553 19.4507C133.351 18.9983 131.3 18.8777 131.3 17.5506C131.3 16.4346 132.356 15.8314 133.954 15.8314C135.704 15.8314 136.759 16.4346 136.94 18.0935H140.65C140.349 14.9869 138.086 12.9661 134.015 12.9661C130.486 12.9661 127.711 14.5646 127.711 17.9125C127.711 21.2906 130.425 22.0446 133.2 22.5875C135.312 23.0098 137.272 23.1606 137.272 24.6385C137.272 25.7243 136.247 26.418 134.437 26.418C132.597 26.418 131.33 25.6338 131.059 23.8543H127.259C127.5 27.1419 130.003 29.3135 134.497 29.3135Z" fill="#355030"/>
<path d="M156.586 28.861V13.3883H152.485V22.316C152.485 24.367 151.308 25.8148 149.378 25.8148C147.629 25.8148 146.814 24.8194 146.814 23.0098V13.3883H142.742V23.7035C142.742 27.0815 144.673 29.2833 148.111 29.2833C150.283 29.2833 151.489 28.469 152.545 27.0514H152.635V28.861H156.586Z" fill="#355030"/>
<path d="M159.24 28.8611H163.341V19.873C163.341 17.822 164.457 16.4949 166.116 16.4949C167.624 16.4949 168.499 17.3998 168.499 19.1491V28.8611H172.601V19.873C172.601 17.822 173.657 16.4949 175.376 16.4949C176.884 16.4949 177.759 17.3998 177.759 19.1491V28.8611H181.86V18.4554C181.86 15.0774 180.021 12.9661 176.763 12.9661C174.803 12.9661 173.174 13.9915 172.118 15.6806H172.058C171.304 14.0519 169.736 12.9661 167.775 12.9661C165.634 12.9661 164.126 14.0519 163.281 15.4695H163.191V13.3883H159.24V28.8611Z" fill="#355030"/>
<path d="M0.687744 28.861H4.78968V7.29565H0.687744V28.861Z" fill="#355030"/>
<path d="M14.8196 29.3135C19.6152 29.3135 22.9028 25.7545 22.9028 21.1398C22.9028 16.5251 19.6152 12.9661 14.8196 12.9661C10.0239 12.9661 6.73633 16.5251 6.73633 21.1398C6.73633 25.7545 10.0239 29.3135 14.8196 29.3135ZM14.8196 26.1767C12.2861 26.1767 10.8986 24.1559 10.8986 21.1398C10.8986 18.1236 12.2861 16.0727 14.8196 16.0727C17.323 16.0727 18.7406 18.1236 18.7406 21.1398C18.7406 24.1559 17.323 26.1767 14.8196 26.1767Z" fill="#355030"/>
<path d="M31.6259 34.1393C33.9182 34.1393 35.9088 33.5964 37.2057 32.3899C38.3519 31.3343 39.0456 29.8564 39.0456 27.6848V13.3883H35.0945V15.017H35.0341C34.0991 13.7201 32.6815 12.9661 30.7512 12.9661C26.8303 12.9661 24.0554 15.9219 24.0554 20.5365C24.0554 25.2115 27.4335 27.9261 30.8719 27.9261C32.8324 27.9261 34.0086 27.1419 34.9135 26.1164H35.004V27.8054C35.004 29.9167 33.888 31.0327 31.5656 31.0327C29.6654 31.0327 28.7907 30.2786 28.459 29.3135H24.3872C24.8095 32.3296 27.4033 34.1393 31.6259 34.1393ZM31.5656 24.6385C29.4543 24.6385 28.0669 23.1003 28.0669 20.4762C28.0669 17.8824 29.4543 16.2536 31.5354 16.2536C34.0086 16.2536 35.2151 18.184 35.2151 20.4461C35.2151 22.7383 34.1595 24.6385 31.5656 24.6385Z" fill="#355030"/>
<path d="M49.016 29.3135C53.8116 29.3135 57.0992 25.7545 57.0992 21.1398C57.0992 16.5251 53.8116 12.9661 49.016 12.9661C44.2203 12.9661 40.9327 16.5251 40.9327 21.1398C40.9327 25.7545 44.2203 29.3135 49.016 29.3135ZM49.016 26.1767C46.4824 26.1767 45.095 24.1559 45.095 21.1398C45.095 18.1236 46.4824 16.0727 49.016 16.0727C51.5194 16.0727 52.9369 18.1236 52.9369 21.1398C52.9369 24.1559 51.5194 26.1767 49.016 26.1767Z" fill="#355030"/>
<path d="M181.676 10.0103C181.676 9.31619 182.238 8.75354 182.932 8.75354H185.446C186.139 8.75354 186.702 9.31619 186.702 10.0103C186.702 10.7043 186.139 11.267 185.446 11.267H182.932C182.238 11.267 181.676 10.7043 181.676 10.0103Z" fill="#355030"/>
</g>
<defs>
<clipPath id="clip0_669_48141">
<rect width="187" height="41.2204" fill="white" transform="translate(0 0.161255)"/>
</clipPath>
</defs>
</svg>
