<svg width="187" height="118" viewBox="0 0 187 118" fill="none" xmlns="http://www.w3.org/2000/svg">
<g clip-path="url(#clip0_669_48168)">
<path d="M175.05 14.4484C175.05 14.5855 175.05 14.7568 175.015 14.8596C174.84 16.1959 174.84 17.5321 174.945 18.9027C175.015 19.2453 175.085 19.588 175.366 19.8621C175.821 20.376 176.522 20.2732 176.802 19.6565C176.943 19.3481 176.943 19.0397 176.872 18.7314C176.522 17.4293 176.452 16.0588 176.417 14.7225C176.417 14.654 176.417 14.5512 176.417 14.4484C176.802 14.4141 177.153 14.3799 177.468 14.3799C177.714 14.3456 177.924 14.3113 178.099 14.2085C178.625 13.9345 178.625 13.352 178.064 13.0779C177.854 12.9751 177.573 12.9408 177.328 12.9408C176.452 12.9751 175.576 12.9751 174.7 12.9751C174.384 12.9751 174.069 13.0093 173.753 13.0436C173.578 13.0779 173.368 13.0779 173.228 13.1807C172.983 13.2834 172.843 13.4548 172.843 13.6946C172.878 13.9345 172.983 14.0715 173.228 14.1743C173.368 14.2771 173.543 14.3113 173.718 14.3113C174.139 14.3456 174.595 14.4141 175.05 14.4484ZM184.687 16.0245C184.687 16.0588 184.722 16.0931 184.722 16.0931C184.862 17.0182 185.003 17.909 185.108 18.7999C185.143 19.1082 185.178 19.3824 185.388 19.6222C185.844 20.2047 186.545 20.1362 186.86 19.5194C187 19.211 187.035 18.9027 186.965 18.56C186.755 17.5321 186.65 16.5042 186.439 15.5106C186.299 14.8938 186.124 14.3113 185.949 13.7631C185.844 13.4205 185.598 13.1806 185.178 13.1464C184.757 13.0779 184.442 13.2834 184.267 13.5918C184.056 13.8659 183.881 14.14 183.741 14.4484C183.496 14.9966 183.285 15.5449 183.005 16.0588C182.97 16.1959 182.935 16.2986 182.865 16.4014C182.83 16.3329 182.795 16.2986 182.795 16.2986C182.339 15.4421 181.919 14.5855 181.463 13.7631C181.393 13.6946 181.358 13.6261 181.323 13.5575C181.113 13.2492 180.867 13.0779 180.482 13.0779C180.132 13.1121 179.851 13.3177 179.676 13.6261C179.606 13.7631 179.606 13.8659 179.571 14.003C179.431 15.0994 179.255 16.1959 179.115 17.2923C179.045 17.909 179.01 18.5258 179.01 19.1425C178.975 19.2796 179.01 19.4509 179.08 19.588C179.15 19.862 179.361 20.0334 179.641 20.0676C179.991 20.1019 180.237 19.9991 180.342 19.725C180.447 19.5194 180.482 19.3481 180.517 19.1768C180.657 18.56 180.762 17.9776 180.867 17.3951C180.937 17.0524 180.972 16.7783 181.078 16.4014C181.148 16.5385 181.218 16.6413 181.288 16.7441C181.603 17.1552 181.919 17.5664 182.304 17.909C182.69 18.1831 183.005 18.1489 183.32 17.8405C183.391 17.772 183.426 17.7377 183.496 17.6692C183.811 17.1895 184.197 16.7098 184.512 16.2301C184.582 16.1616 184.617 16.0931 184.687 16.0245Z" fill="#3A3B7B"/>
<path d="M103.942 15.1216C103.698 15.7727 103.652 16.2419 103.764 16.6318C103.888 17.162 104.211 17.3356 104.648 17.2007C108.765 16.2056 117.79 19.0303 121.132 19.8176C121.92 19.9829 122.561 18.9882 122.024 18.0964C121.239 17.2327 112.217 13.535 108.774 13.3334C107.425 13.2588 105.013 12.9205 103.942 15.1216Z" fill="#3A3B7B"/>
<path d="M139.217 3.15177C139.656 3.39933 139.901 3.63548 140.022 3.89934C140.202 4.24545 140.107 4.48492 139.804 4.60711C137.083 5.90548 133.463 11.4952 132.001 13.423C131.647 13.8665 130.83 13.6088 130.706 12.8795C130.732 12.0549 133.941 5.9888 135.732 4.3366C136.436 3.69153 137.599 2.42583 139.217 3.15177Z" fill="#3A3B7B"/>
<path d="M117.549 0.400169C118.076 0.0118047 118.624 -0.12429 118.903 0.128098C123.009 3.56075 125.186 8.99665 126.534 13.9731C126.584 14.089 126.587 14.2554 126.547 14.429C126.53 14.5773 126.419 14.734 126.243 14.8553C126.055 14.9891 125.893 15.0299 125.817 14.9146C124.018 12.5218 113.742 3.21218 117.549 0.400169Z" fill="#3A3B7B"/>
<path d="M30.6172 59.9137C31.6011 59.1975 32.6708 58.6013 33.8027 58.1386C34.9869 57.8076 36.2491 57.8623 37.3987 58.2951C38.5479 58.7279 39.5222 59.5146 40.1735 60.5367C40.7561 61.5561 40.984 62.7332 40.8232 63.8904C40.6623 65.0474 40.1214 66.1221 39.2815 66.9527C38.6305 67.6259 37.8913 68.2123 37.0837 68.6969C33.4842 70.9705 29.8527 73.1194 26.2213 75.3931C25.4783 75.9621 24.69 76.4726 23.8641 76.9193C22.6078 77.5318 21.1721 77.6958 19.8051 77.383C18.4382 77.0705 17.2261 76.3003 16.3783 75.2063C15.7446 74.4316 15.2097 73.5845 14.7856 72.6834C11.3453 65.6135 7.77765 58.5746 4.46479 51.3799C2.93577 48.2655 1.69345 44.6837 0.482989 41.2266C-0.0407142 40.2221 -0.142982 39.0576 0.197963 37.9805C0.538907 36.9034 1.29616 35.9988 2.30865 35.4592C3.32115 34.9196 4.50897 34.7876 5.61954 35.0911C6.7301 35.3946 7.67579 36.1097 8.25544 37.0842C10.0371 39.3993 11.6143 41.8584 12.9699 44.4347C16.4102 50.6637 19.6912 56.8926 23.004 62.9349C23.1969 63.2688 23.4096 63.591 23.6411 63.9003C26.1346 62.8753 28.4798 61.535 30.6172 59.9137Z" fill="#3A3B7B"/>
<path d="M66.1876 57.7408C58.3197 66.7416 45.1319 64.4679 38.5062 52.882C33.7917 44.6596 32.9636 31.0802 43.2208 22.5152C45.4111 20.7221 48.0302 19.5006 50.8338 18.9646C54.2714 18.4828 57.7769 19.0757 60.849 20.6588C63.9212 22.2418 66.4029 24.7338 67.9398 27.7788C73.546 37.7454 72.7497 50.4526 66.1876 57.7408ZM63.0022 36.7487C62.1663 34.2995 60.4894 32.2086 58.2559 30.8309C56.992 29.9501 55.4562 29.5219 53.9073 29.6184C52.3581 29.7148 50.8905 30.33 49.7508 31.3604C45.1958 35.316 44.2399 44.6908 47.5528 50.2658C47.9751 51.1749 48.5952 51.9828 49.3701 52.633C50.1451 53.2832 51.0561 53.7601 52.0392 54.0299C53.0223 54.2999 54.0537 54.3566 55.0616 54.196C56.0696 54.0352 57.0291 53.6612 57.8738 53.0999C60.343 51.2281 62.1545 48.6507 63.0564 45.726C63.9586 42.8011 63.9062 39.6741 62.9068 36.7799L63.0022 36.7487Z" fill="#3A3B7B"/>
<path d="M98.2965 40.673C97.4911 40.8424 96.6589 40.8526 95.8492 40.7027C95.0398 40.5528 94.2688 40.2464 93.5822 39.8011C92.9814 39.465 92.4643 39.0031 92.0678 38.4483C91.6716 37.8934 91.4061 37.2598 91.2904 36.5924C91.1745 35.9254 91.2116 35.2415 91.3983 34.5899C91.5853 33.9384 91.9179 33.3354 92.3718 32.8244C93.1626 31.7975 94.2851 31.0623 95.5572 30.7377C98.8786 29.7953 102.298 29.2206 105.751 29.0248C106.509 28.9385 107.278 29.0013 108.011 29.2094C108.745 29.4178 109.428 29.7669 110.022 30.2371C110.615 30.707 111.107 31.2883 111.467 31.9466C111.828 32.6048 112.05 33.3269 112.121 34.0703C113.117 37.7222 113.226 41.5511 112.44 45.2516C109.573 57.2113 99.6982 61.3224 88.6129 57.4916C85.5012 56.4673 82.7728 54.5589 80.7768 52.0101C78.1144 48.9406 76.2268 45.3029 75.2659 41.3895C74.4874 37.9046 74.5726 34.2886 75.5148 30.8427C76.4568 27.3968 78.2282 24.2212 80.6811 21.581C83.009 18.7114 86.0304 16.4531 89.473 15.0093C91.6484 13.837 94.194 13.5036 96.6084 14.075C97.1561 14.2232 97.6532 14.512 98.0483 14.9114C98.4434 15.3108 98.7221 15.8063 98.8554 16.3465C98.9887 16.8866 98.9716 17.4518 98.8062 17.9834C98.6406 18.515 98.3328 18.9937 97.9145 19.3697C97.1189 20.0737 96.2547 20.6997 95.3342 21.2384C92.5022 23.0017 90.0378 25.2739 88.0714 27.9346C86.7824 29.6563 85.8947 31.6335 85.471 33.7265C85.047 35.8196 85.0975 37.9781 85.6187 40.0503C86.3411 42.8756 87.9442 45.4116 90.2056 47.307C97.2135 53.5362 106.324 47.525 104.731 39.0224C102.406 39.5831 100.367 40.1748 98.2965 40.673Z" fill="#3A3B7B"/>
<path d="M141.109 58.239C130.757 64.4682 118.971 58.239 116.39 45.1581C114.511 35.8145 118.079 22.7334 130.566 17.7501C133.223 16.7127 136.104 16.3484 138.943 16.6911C142.355 17.3017 145.484 18.9436 147.89 21.3855C150.296 23.8274 151.857 26.9459 152.354 30.3017C154.456 41.4205 149.678 53.287 141.109 58.239ZM144.709 37.2782C144.706 34.6909 143.77 32.1872 142.065 30.2082C141.154 28.9842 139.837 28.1071 138.338 27.7265C136.839 27.3461 135.252 27.4855 133.847 28.1216C128.24 30.4885 124.29 39.0846 125.724 45.4073C125.833 46.3995 126.163 47.3564 126.69 48.211C127.217 49.0656 127.929 49.7973 128.775 50.3551C129.622 50.9126 130.583 51.2829 131.591 51.4397C132.599 51.5962 133.63 51.5358 134.611 51.2626C137.575 50.2504 140.141 48.3587 141.951 45.8516C143.761 43.3444 144.726 40.3471 144.709 37.2782Z" fill="#3A3B7B"/>
<path d="M162.823 60.8554C162.667 61.9953 162.054 63.0278 161.119 63.7258C160.184 64.4236 159.004 64.73 157.838 64.5772C156.672 64.4244 155.616 63.8249 154.903 62.9108C154.188 61.9969 153.875 60.8428 154.032 59.7029C154.188 58.563 154.801 57.5305 155.736 56.8325C156.671 56.1344 157.851 55.8283 159.017 55.9811C160.183 56.1339 161.239 56.7331 161.953 57.6472C162.667 58.5614 162.98 59.7155 162.823 60.8554ZM160.052 18.8401C160.658 17.9354 161.547 17.2465 162.586 16.8761C163.625 16.5056 164.759 16.4735 165.818 16.7845C166.895 17.048 167.846 17.6651 168.513 18.5326C169.18 19.4001 169.521 20.4653 169.481 21.5498C169.341 23.2893 169.074 25.017 168.685 26.7198C167.634 32.4818 166.614 38.2436 165.499 43.9433C164.99 46.217 164.321 48.3971 163.588 50.7018C163.333 51.4223 162.907 52.0733 162.346 52.6017C161.997 52.9992 161.551 53.304 161.049 53.4881C160.547 53.6724 160.006 53.7299 159.476 53.6553C158.946 53.5808 158.443 53.3767 158.015 53.062C157.587 52.747 157.246 52.3316 157.026 51.8542C156.647 50.9978 156.442 50.0775 156.421 49.1446C156.421 45.2825 156.421 41.3895 156.676 37.4961C157.109 31.9401 157.96 26.4227 159.224 20.9891C159.373 20.2612 159.653 19.565 160.052 18.9336V18.8401Z" fill="#3A3B7B"/>
<path fill-rule="evenodd" clip-rule="evenodd" d="M17.1589 85.8832C16.7828 86.7041 16.6796 87.6193 16.8634 88.5001C16.9857 89.6611 17.2542 90.8032 17.663 91.9C18.1733 93.2432 18.7443 94.5715 19.4484 96.2085C19.6103 96.5852 19.7795 96.9784 19.9566 97.3922C20.906 99.6101 22.0974 102.444 23.6865 106.546C24.1363 107.712 24.5357 108.887 24.9379 110.07C25.1004 110.547 25.2634 111.027 25.4303 111.508C26.0286 113.216 27.0581 114.751 28.4227 115.968C29.0021 116.636 29.7707 117.124 30.6325 117.367C31.5111 117.616 32.4456 117.6 33.3149 117.322C34.1841 117.044 34.9476 116.517 35.5062 115.809C36.0539 115.114 36.3795 114.278 36.4428 113.403C36.7981 111.701 36.6768 109.935 36.0913 108.294C35.1619 105.568 34.1032 102.838 32.8823 100.168L32.8767 100.157C30.8684 95.9796 28.8269 91.8314 26.6887 87.6816L26.6727 87.6525C26.0468 86.5714 25.2334 85.6048 24.269 84.7965C23.6429 84.0749 22.7793 83.5882 21.8256 83.4204C20.8516 83.2492 19.8471 83.4217 18.9913 83.9077C18.1817 84.3597 17.54 85.0513 17.1589 85.8832Z" fill="#3A3B7B"/>
<path fill-rule="evenodd" clip-rule="evenodd" d="M47.8338 75.5977C44.6847 74.8003 41.3959 74.6841 38.1966 75.2574C35.7186 75.4959 33.2815 76.0548 31.5891 77.1619C30.7284 77.7253 30.0325 78.4487 29.6454 79.3682C29.2562 80.2928 29.2065 81.3501 29.5254 82.5282C30.1078 84.6862 30.8641 86.7843 31.6177 88.8758L31.7398 89.2145L31.7427 89.222C34.0118 95.2979 36.3026 101.353 38.6142 107.388C38.8837 108.339 39.2649 109.256 39.7501 110.121L39.7591 110.137C40.4 111.212 41.222 112.174 42.1904 112.981C42.6747 113.425 43.2737 113.733 43.9231 113.87C44.5789 114.008 45.261 113.968 45.8949 113.753C46.5291 113.539 47.0906 113.158 47.5186 112.653C47.9396 112.156 48.2153 111.557 48.3165 110.919C48.7343 109.188 48.6005 107.373 47.9327 105.717C47.7243 105.16 47.5608 104.591 47.3885 103.992C47.331 103.792 47.2728 103.589 47.2114 103.382C52.5027 101.359 58.1327 98.6401 60.1125 92.3142C60.8878 90.1282 60.9524 87.761 60.2974 85.5373C59.6418 83.3112 58.2967 81.3381 56.4476 79.8896C53.9308 77.862 50.9909 76.397 47.8338 75.5977ZM39.1049 83.3569C39.2091 83.3275 39.3141 83.3003 39.4193 83.2749C42.8642 82.7454 46.3886 83.4509 49.3437 85.2611C50.646 86.1467 51.1795 87.1306 51.2711 88.0773C51.3657 89.0521 51.0032 90.1084 50.275 91.1238C48.8989 93.0419 46.3878 94.5772 44.1195 94.8633C42.4658 91.1398 40.7866 87.2657 39.1049 83.3569Z" fill="#3A3B7B"/>
<path d="M68.8282 68.7821C72.5784 67.0887 77.2237 66.7962 80.8587 67.9868C81.7742 68.2475 82.5685 68.8115 83.1057 69.5822C83.6394 70.3481 83.8857 71.2711 83.8035 72.1938C83.7981 72.7927 83.6477 73.382 83.3648 73.9136C83.0768 74.4549 82.6598 74.9202 82.149 75.2707C81.6383 75.621 81.0487 75.8462 80.4303 75.9266C79.8115 76.0072 79.1824 75.941 78.5955 75.7334L78.5509 75.7177L78.509 75.696C78.2087 75.5424 77.8897 75.4267 77.5598 75.3514L77.539 75.3469C74.9819 74.6827 72.5698 75.7831 71.6888 77.1351C71.2686 77.7797 71.2165 78.4305 71.5665 79.0225C71.9413 79.6564 72.8605 80.3678 74.7206 80.8749C75.2322 81.0122 75.7566 81.1447 76.2885 81.2793C77.7594 81.6517 79.2879 82.0385 80.7661 82.5747L80.7717 82.5768C87.5907 85.1136 90.1299 90.3675 89.2607 95.3091C88.4007 100.196 84.2266 104.643 77.9496 105.692C75.6655 106.187 73.2885 106.091 71.0538 105.413C68.8135 104.732 66.7942 103.491 65.1964 101.811L65.1548 101.767C64.6504 101.134 64.3111 100.391 64.1607 99.6021C64.0223 98.8902 64.0953 98.1544 64.3704 97.4815C64.644 96.8126 65.1067 96.2337 65.7037 95.8119C66.3345 95.3337 67.0948 95.0468 67.8906 94.9869C68.6837 94.9274 69.4774 95.0959 70.1738 95.4715C70.8695 95.8001 71.5165 96.2193 72.0973 96.7178L72.1082 96.7268C73.1356 97.6455 74.3787 97.8849 75.5707 97.6632C76.78 97.4382 77.9172 96.7386 78.6487 95.8103C79.3753 94.8878 79.667 93.792 79.3208 92.7283C78.9725 91.6567 77.925 90.4562 75.6236 89.4525C75.0219 89.2028 74.3982 89.0013 73.7493 88.8053C73.5743 88.7524 73.3964 88.6997 73.2163 88.6463C72.7365 88.5039 72.2429 88.3573 71.7588 88.1956C71.4254 88.0845 71.0947 87.9792 70.7672 87.8748C69.872 87.5897 68.9992 87.3119 68.1593 86.9393C66.3313 86.3307 64.7519 85.1622 63.6564 83.6067C62.5563 82.0449 62.0027 80.1773 62.0781 78.2828C62.084 73.6657 65.0581 70.4849 68.8282 68.7821Z" fill="#3A3B7B"/>
<path d="M116.373 68.2903C115.645 67.943 114.841 67.7782 114.033 67.8105C113.224 67.8431 112.437 68.0718 111.741 68.4765C111.05 68.8783 110.472 69.4409 110.057 70.1143C109.677 70.6815 109.414 71.3157 109.283 71.9817C109.151 72.6471 109.155 73.331 109.292 73.9949C109.427 74.8481 109.577 75.6779 109.725 76.4961C109.971 77.8503 110.21 79.174 110.367 80.5236L110.373 80.5578C110.732 82.6743 110.92 84.8149 110.937 86.9601L110.938 86.9906C111.061 89.3072 110.254 91.5787 108.69 93.3232L108.665 93.3542C108.156 93.9918 107.475 94.4786 106.699 94.7599C105.924 95.0412 105.083 95.1058 104.272 94.9466C103.46 94.7874 102.711 94.4107 102.106 93.8585C101.501 93.3063 101.065 92.5984 100.847 91.8181C100.382 90.1733 100.113 88.4815 100.045 86.7766L100.839 74.4177C100.85 74.2564 100.864 74.0908 100.877 73.9235C100.908 73.5482 100.939 73.1659 100.951 72.8093C100.97 72.2846 100.954 71.745 100.829 71.2342C100.701 70.7122 100.458 70.2156 100.026 69.7927C99.5986 69.3741 99.0216 69.0653 98.2955 68.855C96.9825 68.4834 95.8723 68.4952 94.9471 68.8791C94.0215 69.263 93.3873 69.9757 92.9385 70.799C92.4932 71.6154 92.2071 72.5819 91.9907 73.5501C91.8301 74.2684 91.7011 75.0226 91.5785 75.7404C91.536 75.9877 91.4946 76.2306 91.4526 76.4665L91.4516 76.4734C90.7955 80.41 90.6002 84.407 90.8695 88.3869C90.9197 90.5377 91.3784 92.6607 92.2226 94.6474C93.1749 97.2109 94.8999 99.4319 97.1698 101.017C99.4445 102.606 102.159 103.482 104.954 103.528C107.749 103.574 110.492 102.789 112.82 101.277C115.145 99.7664 116.947 97.602 117.987 95.0698C119.442 91.844 120.125 88.3359 119.984 84.8128C119.899 82.2408 119.756 79.6489 119.613 77.0702C119.543 75.8053 119.474 74.543 119.411 73.2885C119.379 72.0306 118.955 70.8121 118.195 69.7967C117.725 69.1548 117.098 68.637 116.373 68.2903Z" fill="#3A3B7B"/>
<path d="M142.11 87.6691C142.036 87.7608 141.958 87.8556 141.877 87.9542C141.285 84.6181 140.737 81.2831 140.188 77.943C139.991 76.7446 139.793 75.5411 139.594 74.3411L139.572 74.2073L139.499 74.0916C139.362 73.8739 139.349 73.6604 139.349 73.2052V73.1526L139.34 73.1005C139.192 72.1604 138.757 71.2855 138.093 70.5904C137.43 69.8972 136.57 69.4147 135.623 69.2053C134.678 68.9774 133.685 69.0276 132.769 69.3498C131.856 69.6712 131.059 70.2487 130.48 71.0101C129.998 71.5943 129.602 72.2424 129.307 72.9349C128.635 74.4266 127.957 75.9221 127.277 77.4215L127.266 77.4474C125.569 81.1909 123.861 84.9595 122.202 88.7577L122.197 88.77C121.179 91.2328 120.339 93.8278 119.501 96.4148C119.334 96.9312 119.167 97.4474 118.998 97.9621C118.696 98.7785 118.564 99.6457 118.609 100.513C118.554 101.289 118.744 102.063 119.154 102.73C119.572 103.412 120.197 103.947 120.943 104.263C121.733 104.602 122.617 104.674 123.454 104.467C124.289 104.261 125.03 103.79 125.562 103.128C126.24 102.311 126.824 101.421 127.3 100.478C128.705 97.6686 130.048 94.8245 131.384 91.9928C131.901 90.8975 132.404 89.9166 132.975 88.8483C133.015 88.98 133.055 89.1085 133.096 89.2373C133.695 91.8165 134.707 94.2871 136.093 96.5583C136.355 97.0394 136.721 97.4599 137.164 97.7909C137.613 98.1259 138.131 98.361 138.682 98.4804C139.233 98.5998 139.804 98.6003 140.356 98.482C140.906 98.3639 141.426 98.1286 141.875 97.7952L142.764 97.1447L149.662 91.4634L149.254 94.0052C148.694 97.4992 148.139 100.964 147.548 104.43C147.162 105.966 147.163 107.57 147.55 109.106C147.718 109.97 148.145 110.765 148.778 111.391C149.416 112.022 150.233 112.45 151.123 112.621C152.013 112.792 152.935 112.697 153.769 112.349C154.592 112.007 155.291 111.433 155.78 110.703C156.917 109.323 157.625 107.652 157.82 105.89C158.113 103.401 158.443 100.879 158.774 98.357C159.155 95.4502 159.537 92.5442 159.859 89.6941L159.86 89.6853C160.17 86.5653 160.319 83.4325 160.309 80.2979C160.377 79.3073 160.125 78.3205 159.587 77.4771C159.048 76.6308 158.249 75.9728 157.305 75.5964C156.323 75.1599 155.224 75.0432 154.169 75.2638C153.121 75.4829 152.172 76.023 151.46 76.8055C150.188 77.9561 148.994 79.1873 147.887 80.4913L147.88 80.5001C146.671 81.9728 145.47 83.4744 144.277 84.9664C143.552 85.8734 142.829 86.7782 142.11 87.6691Z" fill="#3A3B7B"/>
</g>
<defs>
<clipPath id="clip0_669_48168">
<rect width="187" height="117.543" fill="white"/>
</clipPath>
</defs>
</svg>
