<svg width="187" height="38" viewBox="0 0 187 38" fill="none" xmlns="http://www.w3.org/2000/svg">
<g clip-path="url(#clip0_669_48104)">
<path fill-rule="evenodd" clip-rule="evenodd" d="M23.658 11.0742C22.1356 10.057 20.3458 9.51402 18.5149 9.51402V0.256592C22.1767 0.256592 25.7564 1.34247 28.8011 3.37691C31.8459 5.41134 34.219 8.30297 35.6204 11.6861C37.0217 15.0692 37.3883 18.792 36.6739 22.3835C35.9595 25.975 34.1962 29.2741 31.6068 31.8634C29.0175 34.4528 25.7184 36.2161 22.1269 36.9305C18.5354 37.6449 14.8126 37.2782 11.4295 35.8769C8.04637 34.4756 5.15475 32.1025 3.12032 29.0577C1.08588 26.013 0 22.4333 0 18.7714H9.25743C9.25743 20.6024 9.80037 22.3922 10.8176 23.9146C11.8348 25.437 13.2806 26.6235 14.9722 27.3242C16.6637 28.0249 18.5251 28.2082 20.3209 27.8509C22.1166 27.4938 23.7661 26.6121 25.0609 25.3175C26.3555 24.0227 27.2372 22.3732 27.5944 20.5775C27.9516 18.7817 27.7683 16.9203 27.0676 15.2288C26.3669 13.5372 25.1804 12.0914 23.658 11.0742Z" fill="#007DFC"/>
<path fill-rule="evenodd" clip-rule="evenodd" d="M9.25742 0.256597C9.25742 1.4723 9.01798 2.6761 8.55275 3.79926C8.08751 4.92242 7.40562 5.94295 6.54599 6.80259C5.68636 7.66222 4.66583 8.34411 3.54266 8.80935C2.4195 9.27457 1.2157 9.51402 4.04651e-07 9.51402L0 18.7714C2.4314 18.7714 4.839 18.2926 7.08533 17.3621C9.33167 16.4316 11.3727 15.0678 13.0919 13.3485C14.8112 11.6293 16.175 9.58827 17.1055 7.34192C18.036 5.09559 18.5148 2.68799 18.5148 0.256592L9.25742 0.256597Z" fill="#007DFC"/>
<path d="M116.291 13.6359H111.799V27.9037H116.291V13.6359Z" fill="#007DFC"/>
<path d="M112.299 10.9643C112.768 11.434 113.355 11.6689 114.06 11.6689C114.764 11.6689 115.342 11.434 115.792 10.9643C116.243 10.4751 116.468 9.88786 116.468 9.20286C116.468 8.49829 116.243 7.91111 115.792 7.44141C115.342 6.97167 114.764 6.73682 114.06 6.73682C113.355 6.73682 112.768 6.97167 112.299 7.44141C111.848 7.91111 111.623 8.49829 111.623 9.20286C111.623 9.88786 111.848 10.4751 112.299 10.9643Z" fill="#007DFC"/>
<path d="M47.3574 27.9037V7.17712H51.9666V23.8524H61.1556V27.9037H47.3574Z" fill="#007DFC"/>
<path fill-rule="evenodd" clip-rule="evenodd" d="M69.4561 28.2266C67.9882 28.2266 66.6574 27.9037 65.4634 27.2578C64.2891 26.5924 63.3595 25.6921 62.6744 24.5568C61.9895 23.4217 61.647 22.1495 61.647 20.7404C61.647 19.3312 61.9895 18.0689 62.6744 16.9533C63.3595 15.8376 64.2891 14.9569 65.4634 14.3111C66.6377 13.6456 67.9687 13.3129 69.4561 13.3129C70.9436 13.3129 72.2744 13.6359 73.4487 14.2817C74.623 14.9275 75.5527 15.8181 76.2377 16.9533C76.9227 18.0689 77.2653 19.3312 77.2653 20.7404C77.2653 22.1495 76.9227 23.4217 76.2377 24.5568C75.5527 25.6921 74.623 26.5924 73.4487 27.2578C72.2744 27.9037 70.9436 28.2266 69.4561 28.2266ZM69.4561 24.1459C70.102 24.1459 70.6695 24.0089 71.1589 23.7349C71.6481 23.4413 72.02 23.0401 72.2744 22.5312C72.5484 22.0028 72.6854 21.4058 72.6854 20.7404C72.6854 20.075 72.5484 19.4976 72.2744 19.0083C72.0004 18.4994 71.6188 18.108 71.1294 17.834C70.6597 17.5404 70.102 17.3936 69.4561 17.3936C68.8298 17.3936 68.272 17.5404 67.7827 17.834C67.2934 18.108 66.9118 18.4994 66.6377 19.0083C66.3637 19.5172 66.2268 20.1043 66.2268 20.7697C66.2268 21.4156 66.3637 22.0028 66.6377 22.5312C66.9118 23.0401 67.2934 23.4413 67.7827 23.7349C68.272 24.0089 68.8298 24.1459 69.4561 24.1459Z" fill="#007DFC"/>
<path fill-rule="evenodd" clip-rule="evenodd" d="M80.8227 33.4817C82.0165 34.0297 83.3963 34.3037 84.9621 34.3037C86.4887 34.3037 87.849 34.0003 89.0428 33.3936C90.2367 32.7869 91.1761 31.9454 91.8611 30.8689C92.5461 29.7925 92.8891 28.5203 92.8891 27.0523V13.6359H88.4849V14.5945C88.1574 14.3189 87.7854 14.0874 87.3694 13.9001C86.606 13.5283 85.7351 13.3423 84.7566 13.3423C83.4453 13.3423 82.2807 13.6555 81.263 14.2817C80.2452 14.8885 79.4428 15.7301 78.8556 16.8065C78.2684 17.8634 77.975 19.0573 77.975 20.3882C77.975 21.6995 78.2684 22.8934 78.8556 23.9698C79.4428 25.0463 80.2452 25.8977 81.263 26.5239C82.2807 27.1502 83.4453 27.4634 84.7566 27.4634C85.7156 27.4634 86.5865 27.2775 87.3694 26.9056C87.7486 26.7255 88.0911 26.5132 88.3969 26.2687V27.1698C88.3969 28.168 88.074 28.941 87.4281 29.4891C86.8018 30.0371 85.9309 30.3111 84.8153 30.3111C83.915 30.3111 83.1419 30.1545 82.496 29.8413C81.8698 29.5282 81.3021 29.0682 80.7932 28.4615L78.0337 31.2212C78.7186 32.1998 79.6484 32.9533 80.8227 33.4817ZM87.2226 23.0597C86.7724 23.3337 86.2343 23.4707 85.6079 23.4707C84.9816 23.4707 84.4336 23.3337 83.9639 23.0597C83.5137 22.7857 83.1614 22.4138 82.9071 21.9441C82.6526 21.4548 82.5254 20.9362 82.5254 20.3882C82.5254 19.801 82.6526 19.2726 82.9071 18.8029C83.1614 18.3331 83.5235 17.9613 83.9932 17.6873C84.4629 17.4132 85.0012 17.2762 85.6079 17.2762C86.2343 17.2762 86.7724 17.4132 87.2226 17.6873C87.6923 17.9613 88.0446 18.3331 88.2795 18.8029C88.5339 19.2726 88.6611 19.801 88.6611 20.3882C88.6611 20.9753 88.5339 21.5037 88.2795 21.9734C88.0446 22.4236 87.6923 22.7857 87.2226 23.0597Z" fill="#007DFC"/>
<path fill-rule="evenodd" clip-rule="evenodd" d="M102.342 28.2266C100.874 28.2266 99.5423 27.9037 98.3491 27.2578C97.1743 26.5924 96.2449 25.6921 95.5598 24.5568C94.8748 23.4217 94.5322 22.1495 94.5322 20.7404C94.5322 19.3312 94.8748 18.0689 95.5598 16.9533C96.2449 15.8376 97.1743 14.9569 98.3491 14.3111C99.5229 13.6456 100.854 13.3129 102.342 13.3129C103.829 13.3129 105.16 13.6359 106.334 14.2817C107.508 14.9275 108.438 15.8181 109.123 16.9533C109.808 18.0689 110.15 19.3312 110.15 20.7404C110.15 22.1495 109.808 23.4217 109.123 24.5568C108.438 25.6921 107.508 26.5924 106.334 27.2578C105.16 27.9037 103.829 28.2266 102.342 28.2266ZM102.342 24.1459C102.987 24.1459 103.555 24.0089 104.044 23.7349C104.533 23.4413 104.905 23.0401 105.16 22.5312C105.434 22.0028 105.571 21.4058 105.571 20.7404C105.571 20.075 105.434 19.4976 105.16 19.0083C104.886 18.4994 104.504 18.108 104.015 17.834C103.545 17.5404 102.987 17.3936 102.342 17.3936C101.715 17.3936 101.157 17.5404 100.668 17.834C100.178 18.108 99.7969 18.4994 99.5229 19.0083C99.2489 19.5172 99.1119 20.1043 99.1119 20.7697C99.1119 21.4156 99.2489 22.0028 99.5229 22.5312C99.7969 23.0401 100.178 23.4413 100.668 23.7349C101.157 24.0089 101.715 24.1459 102.342 24.1459Z" fill="#007DFC"/>
<path fill-rule="evenodd" clip-rule="evenodd" d="M127.087 28.1973C126.129 28.1973 125.247 28.0114 124.445 27.6395C124.023 27.4438 123.641 27.2102 123.301 26.9386V33.9221H118.867V13.6359H123.359V14.6206C123.685 14.3541 124.047 14.1237 124.445 13.9295C125.247 13.538 126.129 13.3423 127.087 13.3423C128.438 13.3423 129.632 13.6653 130.669 14.3112C131.726 14.957 132.548 15.8377 133.135 16.9533C133.742 18.0689 134.045 19.3411 134.045 20.7698C134.045 22.1986 133.742 23.4707 133.135 24.5864C132.548 25.702 131.726 26.5826 130.669 27.2285C129.632 27.8744 128.438 28.1973 127.087 28.1973ZM126.266 24.146C126.911 24.146 127.469 23.9992 127.939 23.7056C128.428 23.4121 128.81 23.0107 129.084 22.502C129.358 21.9931 129.495 21.4157 129.495 20.7698C129.495 20.1044 129.358 19.5173 129.084 19.0084C128.81 18.4995 128.428 18.1081 127.939 17.8341C127.469 17.5404 126.921 17.3937 126.294 17.3937C125.669 17.3937 125.11 17.5404 124.622 17.8341C124.151 18.1081 123.78 18.4995 123.506 19.0084C123.232 19.5173 123.095 20.1044 123.095 20.7698C123.095 21.4157 123.222 21.9931 123.476 22.502C123.75 23.0107 124.132 23.4121 124.622 23.7056C125.11 23.9992 125.658 24.146 126.266 24.146Z" fill="#007DFC"/>
<path d="M138.441 27.9331C139.263 28.1484 140.094 28.256 140.936 28.256C142.717 28.256 144.126 27.845 145.164 27.023C146.22 26.201 146.749 25.0952 146.749 23.7056C146.749 22.8053 146.583 22.0811 146.25 21.5331C145.917 20.9655 145.487 20.5154 144.958 20.1826C144.43 19.8499 143.871 19.5856 143.285 19.3899C142.698 19.1942 142.139 19.0279 141.612 18.8909C141.083 18.7539 140.653 18.5973 140.319 18.4211C139.987 18.245 139.82 18.0101 139.82 17.7166C139.82 17.4425 139.948 17.237 140.202 17.1C140.456 16.9435 140.838 16.8652 141.347 16.8652C141.876 16.8652 142.413 16.9728 142.961 17.1881C143.529 17.4034 144.038 17.7753 144.488 18.3038L147.042 15.7203C146.397 14.8982 145.555 14.2817 144.518 13.8707C143.5 13.4402 142.385 13.2249 141.171 13.2249C140.017 13.2249 139.009 13.4206 138.148 13.812C137.286 14.2035 136.62 14.7417 136.151 15.4266C135.681 16.0921 135.446 16.8848 135.446 17.8047C135.446 18.6658 135.613 19.3802 135.945 19.9478C136.278 20.4957 136.709 20.9264 137.237 21.2395C137.765 21.5526 138.323 21.7973 138.91 21.9734C139.497 22.1496 140.056 22.3159 140.584 22.4726C141.112 22.6096 141.543 22.7759 141.876 22.9716C142.228 23.1478 142.404 23.412 142.404 23.7642C142.404 24.0383 142.257 24.2535 141.963 24.4101C141.689 24.5667 141.289 24.645 140.76 24.645C139.996 24.645 139.292 24.508 138.647 24.234C138 23.9404 137.442 23.5392 136.973 23.0303L134.419 25.6138C134.908 26.1422 135.495 26.612 136.18 27.023C136.885 27.4144 137.638 27.7177 138.441 27.9331Z" fill="#007DFC"/>
<path d="M154.94 28.2266C153.629 28.2266 152.464 27.9624 151.447 27.434C150.448 26.8859 149.666 26.1422 149.098 25.2027C148.53 24.2438 148.247 23.1478 148.247 21.9147V13.6359H152.738V21.856C152.738 22.3453 152.816 22.7661 152.973 23.1183C153.149 23.4707 153.404 23.7447 153.736 23.9404C154.069 24.1361 154.47 24.2339 154.94 24.2339C155.605 24.2339 156.134 24.0284 156.525 23.6174C156.917 23.1868 157.112 22.5997 157.112 21.856V13.6359H161.604V21.8853C161.604 23.138 161.321 24.2438 160.752 25.2027C160.185 26.1422 159.403 26.8859 158.404 27.434C157.406 27.9624 156.251 28.2266 154.94 28.2266Z" fill="#007DFC"/>
<path d="M168.329 13.6359H163.837V27.9038H168.329V19.5661C168.329 19.0769 168.427 18.6659 168.622 18.3331C168.838 18.0004 169.122 17.7459 169.474 17.5699C169.827 17.3741 170.227 17.2762 170.677 17.2762C171.324 17.2762 171.861 17.4817 172.292 17.8928C172.743 18.2842 172.968 18.842 172.968 19.5661V27.9038H177.459V19.5661C177.459 19.0769 177.557 18.6659 177.753 18.3331C177.968 18.0004 178.252 17.7459 178.604 17.5699C178.956 17.3741 179.358 17.2762 179.808 17.2762C180.454 17.2762 180.992 17.4817 181.422 17.8928C181.872 18.2842 182.097 18.842 182.097 19.5661V27.9038H186.59V19.0671C186.59 17.8732 186.335 16.8555 185.826 16.0139C185.336 15.1527 184.662 14.4971 183.801 14.047C182.959 13.5771 181.99 13.3423 180.894 13.3423C179.778 13.3423 178.77 13.587 177.87 14.0763C177.285 14.388 176.774 14.7903 176.336 15.2832C175.928 14.7677 175.432 14.3458 174.846 14.0175C174.064 13.5674 173.173 13.3423 172.175 13.3423C171.118 13.3423 170.169 13.5674 169.328 14.0175C168.961 14.2048 168.629 14.4291 168.329 14.6904V13.6359Z" fill="#007DFC"/>
</g>
<defs>
<clipPath id="clip0_669_48104">
<rect width="187" height="37.0297" fill="white" transform="translate(0 0.256592)"/>
</clipPath>
</defs>
</svg>
