<svg width="187" height="76" viewBox="0 0 187 76" fill="none" xmlns="http://www.w3.org/2000/svg">
<g clip-path="url(#clip0_669_48076)">
<path d="M8.92005 8.29091C9.40625 5.98333 11.7063 4.11146 14.0495 4.11146H26.7879L16.1943 54.2705H3.45591C1.11093 54.2705 -0.39629 52.4005 0.0917796 50.091L8.92005 8.29091ZM51.3821 8.29091C51.8702 5.98333 54.1684 4.11146 56.5115 4.11146H69.25L58.6564 54.2705H45.918C43.573 54.2705 42.0658 52.4005 42.5539 50.091L51.3821 8.29091ZM136.308 8.29091C136.794 5.98333 139.091 4.11146 141.438 4.11146H154.176L143.582 54.2705H130.842C128.497 54.2705 126.992 52.4005 127.48 50.091L136.308 8.29091ZM73.4968 4.11146H86.2352C88.5802 4.11146 90.0874 5.98146 89.5993 8.29091L80.7711 50.091C80.2849 52.4005 77.9866 54.2705 75.6417 54.2705H62.9032L73.4968 4.11146ZM158.423 4.11146H171.161C173.506 4.11146 175.013 5.98146 174.525 8.29091L165.695 50.091C165.209 52.4005 162.913 54.2705 160.568 54.2705H147.827L158.423 4.11146ZM93.8461 8.29091C94.3323 5.98333 96.6287 4.11146 98.9736 4.11146H111.714L101.119 54.2705H88.3801C86.0351 54.2705 84.5279 52.4005 85.0178 50.091L93.8442 8.29091H93.8461ZM115.959 4.11146H128.699C131.044 4.11146 132.549 5.98146 132.061 8.29091L118.82 70.992C118.33 73.2996 116.034 75.1715 113.689 75.1715H100.948L115.959 4.11146ZM23.9717 37.5508H40.9569L38.309 50.091C37.8209 52.4005 35.5227 54.2705 33.1796 54.2705H20.4393L23.9698 37.5527L23.9717 37.5508ZM83.2525 58.4518H100.236L96.7053 75.1715H83.9669C81.62 75.1715 80.1147 73.3015 80.6028 70.992L83.2525 58.4518ZM129.356 62.3395L127.205 72.5235C127.112 72.9611 126.966 73.0808 126.521 73.0808H125.543C125.098 73.0808 125 72.9611 125.094 72.5235L127.244 62.3395C127.338 61.9038 127.484 61.7823 127.929 61.7823H128.907C129.352 61.7823 129.449 61.9038 129.356 62.3395ZM132.183 69.2099H131.983C131.77 69.2099 131.695 69.2697 131.652 69.4811L131.009 72.5235C130.915 72.9611 130.767 73.0808 130.324 73.0808H129.344C128.901 73.0808 128.804 72.9611 128.896 72.5235L131.046 62.3395C131.14 61.9038 131.289 61.7823 131.732 61.7823H133.752C136.078 61.7823 136.959 62.6107 136.529 64.6434L136.17 66.3469C135.74 68.3815 134.509 69.2099 132.183 69.2099ZM132.774 64.1628L132.213 66.8294C132.166 67.0407 132.215 67.1005 132.43 67.1005H132.751C133.499 67.1005 133.901 66.7995 134.064 66.0309L134.289 64.9613C134.451 64.1946 134.178 63.8916 133.428 63.8916H133.107C132.894 63.8916 132.819 63.9515 132.774 64.1628ZM139.764 65.8046L141.353 67.5531C142.187 68.4563 142.303 68.9986 142.09 70.0084L142.034 70.2795C141.632 72.1776 140.675 73.2323 138.455 73.2323C136.237 73.2323 135.689 72.344 136.202 69.9168L136.265 69.6176C136.359 69.18 136.506 69.0584 136.95 69.0584H137.989C138.434 69.0584 138.532 69.18 138.438 69.6157L138.298 70.2795C138.171 70.8817 138.365 71.1229 138.9 71.1229C139.437 71.1229 139.728 70.8985 139.844 70.3562L139.904 70.0682C139.994 69.6456 139.945 69.4362 139.485 68.9388L137.989 67.3268C137.152 66.4386 137.045 65.9243 137.258 64.9145L137.327 64.5854C137.729 62.6873 138.687 61.6308 140.905 61.6308C143.124 61.6308 143.672 62.5209 143.16 64.9463L143.096 65.2474C143.003 65.685 142.855 65.8046 142.412 65.8046H141.37C140.927 65.8046 140.83 65.685 140.921 65.2474L141.062 64.5854C141.189 63.9814 140.996 63.742 140.46 63.742C139.925 63.742 139.631 63.9664 139.517 64.5087L139.463 64.7649C139.369 65.2025 139.418 65.4138 139.764 65.8046ZM148.725 62.3395C148.818 61.9038 148.964 61.7823 149.409 61.7823H150.387C150.832 61.7823 150.93 61.9038 150.836 62.3395L149.235 69.9186C148.723 72.344 147.801 73.2323 145.582 73.2323C143.364 73.2323 142.816 72.344 143.328 69.9168L144.929 62.3395C145.022 61.9038 145.17 61.7823 145.613 61.7823H146.593C147.036 61.7823 147.134 61.9038 147.042 62.3395L145.365 70.2795C145.237 70.8817 145.447 71.1229 146.028 71.1229C146.593 71.1229 146.92 70.8817 147.048 70.2795L148.725 62.3395ZM155.094 68.4713C155.1 68.5928 155.139 68.6209 155.216 68.6209C155.291 68.6209 155.345 68.5928 155.401 68.4713L158.045 62.175C158.174 61.8571 158.327 61.7823 158.711 61.7823H160.196C160.639 61.7823 160.736 61.9038 160.644 62.3395L158.494 72.5235C158.4 72.9611 158.251 73.0808 157.808 73.0808H157.104C156.661 73.0808 156.562 72.9611 156.656 72.5235L157.688 67.6428C157.716 67.5082 157.692 67.4764 157.6 67.4764C157.538 67.4764 157.469 67.5082 157.432 67.6129L155.296 72.5853C155.143 72.9462 154.946 73.0808 154.503 73.0808H154.088C153.628 73.0808 153.49 72.9462 153.49 72.5853L153.437 67.6111C153.428 67.5063 153.404 67.4764 153.327 67.4764C153.235 67.4764 153.198 67.5082 153.17 67.6428L152.14 72.5235C152.046 72.9611 151.9 73.0808 151.455 73.0808H150.752C150.307 73.0808 150.21 72.9611 150.303 72.5235L152.454 62.3395C152.547 61.9038 152.695 61.7823 153.138 61.7823H154.41C154.945 61.7823 155.117 61.9038 155.113 62.4312L155.092 68.4713H155.094ZM187 4.11146C187 6.17781 185.336 7.85146 183.284 7.85146C182.795 7.84999 182.31 7.75207 181.859 7.5633C181.407 7.37453 180.997 7.0986 180.652 6.75128C180.307 6.40397 180.033 5.99207 179.848 5.53912C179.662 5.08617 179.567 4.60104 179.569 4.11146C179.569 2.04511 181.233 0.37146 183.284 0.37146C185.336 0.37146 187 2.04511 187 4.11146Z" fill="#1D2633"/>
</g>
<defs>
<clipPath id="clip0_669_48076">
<rect width="187" height="74.8" fill="white" transform="translate(0 0.37146)"/>
</clipPath>
</defs>
</svg>
