<svg width="76" height="76" viewBox="0 0 76 76" fill="none" xmlns="http://www.w3.org/2000/svg">
<g filter="url(#filter0_d_2024_2489)">
<path d="M16 34C16 21.8497 25.8497 12 38 12C50.1503 12 60 21.8497 60 34C60 46.1503 50.1503 56 38 56C25.8497 56 16 46.1503 16 34Z" fill="white" shape-rendering="crispEdges"/>
<path d="M43.525 31H40V29C40 27.968 40.084 27.318 41.563 27.318H43.431V24.138C42.522 24.044 41.608 23.998 40.693 24C37.98 24 36 25.657 36 28.699V31H33V35L36 34.999V44H40V34.997L43.066 34.996L43.525 31Z" fill="#FF9719"/>
</g>
<defs>
<filter id="filter0_d_2024_2489" x="0.8" y="0.8" width="74.4" height="74.4" filterUnits="userSpaceOnUse" color-interpolation-filters="sRGB">
<feFlood flood-opacity="0" result="BackgroundImageFix"/>
<feColorMatrix in="SourceAlpha" type="matrix" values="0 0 0 0 0 0 0 0 0 0 0 0 0 0 0 0 0 0 127 0" result="hardAlpha"/>
<feOffset dy="4"/>
<feGaussianBlur stdDeviation="7.6"/>
<feComposite in2="hardAlpha" operator="out"/>
<feColorMatrix type="matrix" values="0 0 0 0 1 0 0 0 0 0.592157 0 0 0 0 0.0980392 0 0 0 0.29 0"/>
<feBlend mode="normal" in2="BackgroundImageFix" result="effect1_dropShadow_2024_2489"/>
<feBlend mode="normal" in="SourceGraphic" in2="effect1_dropShadow_2024_2489" result="shape"/>
</filter>
</defs>
</svg>
