<svg width="76" height="76" viewBox="0 0 76 76" fill="none" xmlns="http://www.w3.org/2000/svg">
<g filter="url(#filter0_d_2024_2495)">
<path d="M16 34C16 21.8497 25.8497 12 38 12C50.1503 12 60 21.8497 60 34C60 46.1503 50.1503 56 38 56C25.8497 56 16 46.1503 16 34Z" fill="white" shape-rendering="crispEdges"/>
<path d="M31.6797 24L33.1582 29.3438V31.9062H34.4395V29.3438L35.9375 24H34.6465L34.1094 26.4316C33.9584 27.1416 33.8624 27.6463 33.8184 27.9473H33.7793C33.7163 27.5263 33.6203 27.0179 33.4883 26.4219L32.9707 24H31.6797ZM37.4316 26.0176C36.9976 26.0176 36.6479 26.1024 36.3809 26.2754C36.1139 26.4474 35.917 26.7226 35.791 27.0996C35.666 27.4766 35.6035 27.9757 35.6035 28.5977V29.4375C35.6035 30.0525 35.6576 30.545 35.7676 30.916C35.8776 31.287 36.0632 31.5603 36.3242 31.7363C36.5852 31.9123 36.9443 32 37.4023 32C37.8483 32 38.2029 31.9132 38.4629 31.7402C38.7229 31.5672 38.9113 31.2959 39.0273 30.9219C39.1433 30.5479 39.2012 30.0535 39.2012 29.4375V28.5977C39.2012 27.9767 39.1424 27.4795 39.0234 27.1055C38.9044 26.7325 38.715 26.4573 38.457 26.2812C38.199 26.1052 37.8586 26.0176 37.4316 26.0176ZM39.8789 26.1309V30.4453C39.8789 30.9793 39.9684 31.372 40.1504 31.623C40.3324 31.874 40.615 32 40.998 32C41.55 32 41.9662 31.7332 42.2422 31.1992H42.2695L42.3828 31.9062H43.4004V26.1309H42.1016V30.7188C42.0516 30.8257 41.9751 30.9134 41.8711 30.9824C41.7671 31.0524 41.6599 31.0859 41.5469 31.0859C41.4149 31.0859 41.3207 31.0319 41.2637 30.9219C41.2067 30.8119 41.1777 30.6271 41.1777 30.3691V26.1309H39.8789ZM37.4023 26.9121C37.5843 26.9121 37.7132 27.0072 37.7852 27.1992C37.8572 27.3902 37.8926 27.6944 37.8926 28.1094V29.9082C37.8926 30.3352 37.8572 30.644 37.7852 30.832C37.7132 31.02 37.5853 31.1142 37.4043 31.1152C37.2223 31.1152 37.0963 31.02 37.0273 30.832C36.9573 30.644 36.9238 30.3352 36.9238 29.9082V28.1094C36.9238 27.6954 36.9592 27.3912 37.0312 27.1992C37.1032 27.0082 37.2263 26.9121 37.4023 26.9121ZM31 33C29.9 33 29 33.9 29 35V42C29 43.1 29.9 44 31 44H45C46.1 44 47 43.1 47 42V35C47 33.9 46.1 33 45 33H31ZM38.0488 35H39.1055V37.5684H39.1133C39.2083 37.3824 39.3445 37.2331 39.5195 37.1191C39.6945 37.0051 39.8839 36.9492 40.0859 36.9492C40.3459 36.9492 40.5493 37.0183 40.6973 37.1562C40.8453 37.2942 40.9535 37.5172 41.0195 37.8242C41.0855 38.1322 41.1172 38.5595 41.1172 39.1055V39.877H41.1191C41.1191 40.604 41.0305 41.1365 40.8555 41.4785C40.6805 41.8205 40.4081 41.9922 40.0371 41.9922C39.8301 41.9922 39.6427 41.9446 39.4727 41.8496C39.3027 41.7546 39.1748 41.624 39.0898 41.459H39.0664L38.9551 41.9199H38.0488V35ZM31.4863 35.2461H34.7383V36.1309H33.6484V41.9199H32.5762V36.1309H31.4863V35.2461ZM43.0977 36.9512C43.4737 36.9512 43.7628 37.0202 43.9648 37.1582C44.1658 37.2962 44.3076 37.5117 44.3906 37.8027C44.4726 38.0947 44.5137 38.4977 44.5137 39.0117V39.8477H42.6777V40.0957C42.6777 40.4087 42.6861 40.6428 42.7051 40.7988C42.7241 40.9548 42.7623 41.0696 42.8203 41.1406C42.8783 41.2126 42.9678 41.248 43.0898 41.248C43.2538 41.248 43.3667 41.1836 43.4277 41.0566C43.4887 40.9296 43.5223 40.7189 43.5273 40.4219L44.4746 40.4766C44.4796 40.5186 44.4824 40.5783 44.4824 40.6523C44.4824 41.1033 44.3583 41.4401 44.1113 41.6621C43.8643 41.8851 43.5174 41.9961 43.0664 41.9961C42.5254 41.9961 42.1457 41.8253 41.9277 41.4863C41.7097 41.1473 41.6016 40.6231 41.6016 39.9121V39.0605C41.6016 38.3285 41.7145 37.794 41.9395 37.457C42.1645 37.12 42.5517 36.9512 43.0977 36.9512ZM34.4102 37.0449H35.5098V40.625C35.5098 40.842 35.534 40.9978 35.582 41.0898C35.63 41.1828 35.7083 41.2285 35.8203 41.2285C35.9153 41.2285 36.0087 41.1996 36.0957 41.1406C36.1837 41.0826 36.2461 41.008 36.2891 40.918V37.0449H37.3887V41.9199H37.3867H36.5273L36.4336 41.3223H36.4082C36.1742 41.7743 35.8244 42 35.3574 42C35.0334 42 34.7966 41.8936 34.6426 41.6816C34.4886 41.4696 34.4102 41.1375 34.4102 40.6875V37.0449ZM43.0742 37.6934C42.9572 37.6934 42.8705 37.7289 42.8145 37.7969C42.7585 37.8659 42.7211 37.9788 42.7031 38.1348C42.6841 38.2908 42.6758 38.5277 42.6758 38.8457V39.1953H43.4785V38.8457C43.4785 38.5327 43.4683 38.2968 43.4473 38.1348C43.4273 37.9728 43.388 37.859 43.332 37.793C43.276 37.727 43.1912 37.6934 43.0742 37.6934ZM39.5918 37.7285C39.4858 37.7285 39.3888 37.7705 39.2988 37.8555C39.2088 37.9405 39.1444 38.0496 39.1074 38.1816V40.9492C39.1554 41.0342 39.2179 41.0976 39.2949 41.1406C39.3719 41.1826 39.4539 41.2051 39.5449 41.2051C39.6619 41.2051 39.7533 41.1631 39.8223 41.0781C39.8913 40.9931 39.9417 40.8504 39.9707 40.6484C39.9997 40.4474 40.0137 40.1675 40.0137 39.8125V39.1855C40.0137 38.8035 40.0025 38.5097 39.9785 38.3027C39.9545 38.0957 39.9116 37.9464 39.8516 37.8594C39.7906 37.7724 39.7038 37.7285 39.5918 37.7285Z" fill="#FF9719"/>
</g>
<defs>
<filter id="filter0_d_2024_2495" x="0.8" y="0.8" width="74.4" height="74.4" filterUnits="userSpaceOnUse" color-interpolation-filters="sRGB">
<feFlood flood-opacity="0" result="BackgroundImageFix"/>
<feColorMatrix in="SourceAlpha" type="matrix" values="0 0 0 0 0 0 0 0 0 0 0 0 0 0 0 0 0 0 127 0" result="hardAlpha"/>
<feOffset dy="4"/>
<feGaussianBlur stdDeviation="7.6"/>
<feComposite in2="hardAlpha" operator="out"/>
<feColorMatrix type="matrix" values="0 0 0 0 1 0 0 0 0 0.592157 0 0 0 0 0.0980392 0 0 0 0.29 0"/>
<feBlend mode="normal" in2="BackgroundImageFix" result="effect1_dropShadow_2024_2495"/>
<feBlend mode="normal" in="SourceGraphic" in2="effect1_dropShadow_2024_2495" result="shape"/>
</filter>
</defs>
</svg>
