<svg width="189" height="48" viewBox="0 0 189 48" fill="none" xmlns="http://www.w3.org/2000/svg">
<g id="Group">
<g id="Group_2">
<path id="Vector" d="M77.6187 17.9619C78.488 18.3973 79.1625 19.0152 79.6377 19.8155C80.1129 20.6158 80.3516 21.5364 80.3516 22.5731C80.3516 23.6097 80.1019 24.4951 79.6026 25.2746C79.1034 26.0522 78.4026 26.6555 77.4982 27.0826C76.596 27.5097 75.5558 27.7233 74.3799 27.7233H71.8178C71.7368 27.7233 71.6974 27.7606 71.6974 27.8373V32.9875C71.6974 33.0953 71.6645 33.1783 71.601 33.2384C71.5375 33.2985 71.4477 33.3296 71.336 33.3296H67.517C67.4031 33.3296 67.3155 33.2985 67.252 33.2384C67.1885 33.1783 67.1556 33.0933 67.1556 32.9875V17.6509C67.1556 17.5452 67.1885 17.4602 67.252 17.4001C67.3155 17.3399 67.4053 17.3088 67.517 17.3088H74.6011C75.7442 17.3088 76.7537 17.5265 77.623 17.9619H77.6187ZM75.2865 23.844C75.65 23.5475 75.8296 23.1536 75.8296 22.6643C75.8296 22.175 75.6478 21.7562 75.2865 21.4514C74.923 21.1466 74.4434 20.9932 73.8478 20.9932H71.8178C71.7368 20.9932 71.6974 21.0305 71.6974 21.1072V24.1737C71.6974 24.2504 71.7368 24.2877 71.8178 24.2877H73.8478C74.4434 24.2877 74.923 24.1385 75.2865 23.842V23.844Z" fill="white"/>
<path id="Vector_2" d="M91.1583 21.5675C91.3028 21.6442 91.3598 21.7893 91.3269 22.0029L90.7466 25.5276C90.7313 25.6499 90.6853 25.7266 90.6131 25.7556C90.5408 25.7867 90.4401 25.7867 90.3109 25.7556C90.0196 25.6955 89.7634 25.6644 89.5379 25.6644C89.297 25.6644 89.0692 25.6872 88.8612 25.7328C88.4429 25.8096 88.0838 25.9734 87.786 26.2242C87.4882 26.4751 87.3393 26.8151 87.3393 27.2422V32.9875C87.3393 33.0953 87.3064 33.1782 87.2429 33.2384C87.1794 33.2985 87.0896 33.3296 86.9779 33.3296H83.1589C83.045 33.3296 82.9574 33.2985 82.8939 33.2384C82.8304 33.1782 82.7975 33.0932 82.7975 32.9875V21.7707C82.7975 21.6649 82.8304 21.5799 82.8939 21.5198C82.9574 21.4597 83.0472 21.4286 83.1589 21.4286H86.9779C87.0896 21.4286 87.1794 21.4597 87.2429 21.5198C87.3064 21.5799 87.3393 21.6649 87.3393 21.7707V22.3201C87.3393 22.3657 87.3546 22.3968 87.3874 22.4113C87.4203 22.4258 87.4444 22.4196 87.4597 22.3885C88.0729 21.64 88.87 21.2668 89.8532 21.2668C90.4006 21.2668 90.8364 21.3664 91.1583 21.5654V21.5675Z" fill="white"/>
<path id="Vector_3" d="M95.2074 32.3489C94.1519 31.5714 93.4555 30.5181 93.1161 29.1891C92.954 28.6397 92.8752 28.0301 92.8752 27.3583C92.8752 26.6099 92.9715 25.9319 93.1664 25.3202C93.554 24.0534 94.2657 23.0582 95.3059 22.3325C96.3461 21.6069 97.614 21.2461 99.114 21.2461C100.614 21.2461 101.873 21.6089 102.898 22.3325C103.921 23.0582 104.626 24.0389 105.013 25.2746C105.206 25.9153 105.305 26.5953 105.305 27.3127C105.305 27.8933 105.241 28.4717 105.112 29.0523C104.773 30.4248 104.076 31.5133 103.021 32.3136C101.965 33.116 100.656 33.5162 99.0921 33.5162C97.5286 33.5162 96.2672 33.1264 95.2117 32.3489H95.2074ZM100.104 29.4296C100.362 29.1621 100.54 28.8076 100.636 28.366C100.699 28.0757 100.732 27.7336 100.732 27.3355C100.732 26.9851 100.693 26.6347 100.612 26.2823C100.371 25.3824 99.8629 24.9325 99.0877 24.9325C98.3125 24.9325 97.7738 25.3824 97.5636 26.2823C97.4826 26.5414 97.4432 26.8918 97.4432 27.3355C97.4432 27.7315 97.476 28.0757 97.5395 28.366C97.7804 29.3425 98.2972 29.8318 99.0877 29.8318C99.506 29.8318 99.8454 29.6991 100.104 29.4317V29.4296Z" fill="white"/>
<path id="Vector_4" d="M121.523 25.7102C121.586 25.7703 121.619 25.8553 121.619 25.9611V29.0752C121.619 29.183 121.586 29.266 121.523 29.3261C121.459 29.3862 121.369 29.4173 121.258 29.4173H120.266C120.185 29.4173 120.145 29.4546 120.145 29.5314V32.9876C120.145 33.0955 120.112 33.1784 120.049 33.2385C119.985 33.2986 119.895 33.3297 119.784 33.3297H115.965C115.851 33.3297 115.763 33.2986 115.7 33.2385C115.636 33.1784 115.603 33.0934 115.603 32.9876V29.5314C115.603 29.4546 115.564 29.4173 115.483 29.4173H107.939C107.825 29.4173 107.738 29.3862 107.674 29.3261C107.611 29.266 107.578 29.181 107.578 29.0752V26.6494C107.578 26.496 107.611 26.3508 107.674 26.214L111.616 17.5619C111.679 17.394 111.817 17.311 112.027 17.311H116.114C116.243 17.311 116.33 17.3484 116.379 17.4251C116.427 17.5018 116.427 17.6013 116.379 17.7216L112.873 25.4821C112.857 25.5132 112.857 25.5422 112.873 25.5733C112.888 25.6044 112.912 25.6189 112.945 25.6189H115.483C115.564 25.6189 115.603 25.5816 115.603 25.5049V23.2387C115.603 23.133 115.636 23.048 115.7 22.9879C115.763 22.9277 115.853 22.8966 115.965 22.8966H119.784C119.895 22.8966 119.985 22.9277 120.049 22.9879C120.112 23.048 120.145 23.133 120.145 23.2387V25.5049C120.145 25.5816 120.185 25.6189 120.266 25.6189H121.258C121.369 25.6189 121.459 25.6501 121.523 25.7102Z" fill="#FF9719"/>
<path id="Vector_5" d="M133.345 17.4023C133.409 17.3421 133.499 17.311 133.61 17.311H137.429C137.541 17.311 137.631 17.3421 137.694 17.4023C137.758 17.4624 137.791 17.5474 137.791 17.6531V32.9897C137.791 33.0975 137.758 33.1805 137.694 33.2406C137.631 33.3007 137.541 33.3318 137.429 33.3318H133.61C133.497 33.3318 133.409 33.3007 133.345 33.2406C133.28 33.1805 133.249 33.0955 133.249 32.9897V27.176C133.249 27.0993 133.21 27.062 133.129 27.062H129.358C129.277 27.062 129.237 27.1014 129.237 27.176V32.9897C129.237 33.0975 129.204 33.1805 129.141 33.2406C129.077 33.3007 128.988 33.3318 128.876 33.3318H125.057C124.943 33.3318 124.855 33.3007 124.792 33.2406C124.728 33.1805 124.696 33.0955 124.696 32.9897V17.6531C124.696 17.5474 124.728 17.4624 124.792 17.4023C124.855 17.3421 124.945 17.311 125.057 17.311H128.876C128.988 17.311 129.077 17.3421 129.141 17.4023C129.204 17.4624 129.237 17.5474 129.237 17.6531V23.2616C129.237 23.3383 129.277 23.3756 129.358 23.3756H133.129C133.21 23.3756 133.249 23.3383 133.249 23.2616V17.6531C133.249 17.5474 133.282 17.4624 133.345 17.4023Z" fill="white"/>
<path id="Vector_6" d="M142.593 32.3489C141.538 31.5714 140.841 30.5181 140.502 29.1891C140.34 28.6397 140.261 28.0301 140.261 27.3583C140.261 26.6099 140.357 25.9319 140.552 25.3202C140.94 24.0534 141.651 23.0582 142.692 22.3325C143.732 21.6069 145 21.2461 146.5 21.2461C148 21.2461 149.259 21.6089 150.284 22.3325C151.306 23.0582 152.012 24.0389 152.399 25.2746C152.592 25.9153 152.69 26.5953 152.69 27.3127C152.69 27.8933 152.627 28.4717 152.498 29.0523C152.158 30.4248 151.462 31.5133 150.406 32.3136C149.351 33.116 148.041 33.5162 146.478 33.5162C144.914 33.5162 143.653 33.1264 142.597 32.3489H142.593ZM147.49 29.4296C147.748 29.1621 147.925 28.8076 148.022 28.366C148.085 28.0757 148.118 27.7336 148.118 27.3355C148.118 26.9851 148.079 26.6347 147.998 26.2823C147.757 25.3824 147.249 24.9325 146.473 24.9325C145.698 24.9325 145.16 25.3824 144.949 26.2823C144.868 26.5414 144.829 26.8918 144.829 27.3355C144.829 27.7315 144.862 28.0757 144.925 28.366C145.166 29.3425 145.683 29.8318 146.473 29.8318C146.892 29.8318 147.231 29.6991 147.49 29.4317V29.4296Z" fill="white"/>
<path id="Vector_7" d="M173.069 22.3678C173.778 23.1163 174.133 24.1695 174.133 25.5276V32.9896C174.133 33.0974 174.1 33.1803 174.037 33.2404C173.973 33.3006 173.884 33.3317 173.772 33.3317H169.953C169.839 33.3317 169.751 33.3006 169.688 33.2404C169.624 33.1803 169.592 33.0953 169.592 32.9896V26.4647C169.592 26.0065 169.473 25.6375 169.241 25.3555C169.007 25.0735 168.705 24.9325 168.335 24.9325C167.964 24.9325 167.634 25.0735 167.391 25.3555C167.15 25.6375 167.027 26.0086 167.027 26.4647V32.9896C167.027 33.0974 166.994 33.1803 166.931 33.2404C166.867 33.3006 166.778 33.3317 166.666 33.3317H162.847C162.733 33.3317 162.645 33.3006 162.582 33.2404C162.518 33.1803 162.486 33.0953 162.486 32.9896V26.4647C162.486 26.0065 162.361 25.6375 162.111 25.3555C161.861 25.0735 161.535 24.9325 161.132 24.9325C160.777 24.9325 160.484 25.0362 160.25 25.2414C160.015 25.4467 159.866 25.7266 159.803 26.077C159.788 26.1081 159.779 26.1537 159.779 26.2138V32.9896C159.779 33.0974 159.746 33.1803 159.683 33.2404C159.619 33.3006 159.529 33.3317 159.418 33.3317H155.599C155.485 33.3317 155.397 33.3006 155.334 33.2404C155.27 33.1803 155.237 33.0953 155.237 32.9896V21.7727C155.237 21.667 155.27 21.582 155.334 21.5219C155.397 21.4617 155.487 21.4306 155.599 21.4306H159.418C159.529 21.4306 159.619 21.4617 159.683 21.5219C159.746 21.582 159.779 21.667 159.779 21.7727V22.9172C159.779 22.9773 159.794 23.0084 159.827 23.0084C159.86 23.0084 159.891 22.9856 159.923 22.94C160.537 21.81 161.568 21.2461 163.018 21.2461C163.839 21.2461 164.561 21.4265 165.181 21.7831C165.801 22.1418 166.274 22.656 166.596 23.3277C166.644 23.4045 166.692 23.3962 166.74 23.3049C167.062 22.6187 167.509 22.1024 168.083 21.7603C168.654 21.4161 169.329 21.2461 170.102 21.2461C171.374 21.2461 172.366 21.6193 173.076 22.3678H173.069Z" fill="white"/>
<path id="Vector_8" d="M189 27.5657C189 27.8103 188.991 28.0011 188.976 28.1379C188.976 28.3515 188.855 28.4593 188.612 28.4593H181.36C181.296 28.4593 181.263 28.4904 181.263 28.5505C181.263 28.6874 181.327 28.8491 181.456 29.0315C181.618 29.2907 181.903 29.5084 182.314 29.6846C182.726 29.8609 183.188 29.9479 183.705 29.9479C184.141 29.9479 184.544 29.8878 184.914 29.7655C185.284 29.6432 185.599 29.469 185.858 29.2389C185.939 29.1787 186.017 29.1476 186.098 29.1476C186.21 29.1476 186.3 29.1932 186.363 29.2845L188.201 31.505C188.264 31.5817 188.297 31.6647 188.297 31.7559C188.297 31.8471 188.258 31.9239 188.177 31.9861C187.612 32.5044 186.911 32.89 186.072 33.1409C185.233 33.3918 184.331 33.5183 183.363 33.5183C181.866 33.5183 180.582 33.2197 179.52 32.6246C178.456 32.0296 177.683 31.1816 177.199 30.0848C176.844 29.2907 176.667 28.4365 176.667 27.5201C176.667 26.558 176.811 25.7038 177.103 24.9553C177.538 23.7963 178.254 22.8882 179.255 22.2309C180.254 21.5758 181.432 21.2461 182.785 21.2461C183.817 21.2461 184.771 21.4742 185.65 21.9324C186.528 22.3906 187.253 23.0188 187.826 23.8212C188.398 24.6215 188.766 25.5255 188.926 26.5331C188.974 26.869 188.998 27.2132 188.998 27.5636L189 27.5657ZM181.384 25.8489L181.287 26.0998C181.272 26.1454 181.279 26.1807 181.311 26.2035C181.344 26.2263 181.375 26.2387 181.408 26.2387H184.165C184.228 26.2387 184.261 26.2076 184.261 26.1475C184.261 26.0874 184.237 25.9878 184.189 25.851C184.108 25.5607 183.944 25.3368 183.694 25.1751C183.444 25.0154 183.133 24.9346 182.763 24.9346C182.102 24.9346 181.642 25.2394 181.386 25.851L181.384 25.8489Z" fill="white"/>
</g>
<path id="Vector_9" d="M48.6012 0.220215H3.43808C2.02307 0.220215 0.875977 1.30629 0.875977 2.64604V45.4068C0.875977 46.7466 2.02307 47.8326 3.43808 47.8326H48.6012C50.0162 47.8326 51.1633 46.7466 51.1633 45.4068V2.64604C51.1633 1.30629 50.0162 0.220215 48.6012 0.220215Z" fill="white"/>
</g>
</svg>
